
<svg width="275.2" height="275.2" viewBox="0 0 64 64" xmlns="http://www.w3.org/2000/svg">
  <g fill="#357EDD"><path d="M7.9 33H12V31H7.9C7.5 29.3 5.9 28 4 28C1.8 28 0 29.8 0 32C0 34.2 1.8 36 4 36C5.9 36 7.4 34.7 7.9 33ZM4 34C2.9 34 2 33.1 2 32C2 30.9 2.9 30 4 30C5.1 30 6 30.9 6 32C6 33.1 5.1 34 4 34Z"></path><path d="M60 28C58.1 28 56.6 29.3 56.1 31H52V33H56.1C56.5 34.7 58.1 36 60 36C62.2 36 64 34.2 64 32C64 29.8 62.2 28 60 28ZM60 34C58.9 34 58 33.1 58 32C58 30.9 58.9 30 60 30C61.1 30 62 30.9 62 32C62 33.1 61.1 34 60 34Z"></path><path d="M56 56.1V43C56 40.2 53.8 38 51 38H48V40H51C52.7 40 54 41.3 54 43V56.1C52.3 56.5 51 58.1 51 60C51 62.2 52.8 64 55 64C57.2 64 59 62.2 59 60C59 58.1 57.7 56.6 56 56.1ZM55 62C53.9 62 53 61.1 53 60C53 58.9 53.9 58 55 58C56.1 58 57 58.9 57 60C57 61.1 56.1 62 55 62Z"></path><path d="M13 40H16V38H13C10.2 38 8 40.2 8 43V56.1C6.3 56.5 5 58.1 5 60C5 62.2 6.8 64 9 64C11.2 64 13 62.2 13 60C13 58.1 11.7 56.6 10 56.1V43C10 41.3 11.3 40 13 40ZM11 60C11 61.1 10.1 62 9 62C7.9 62 7 61.1 7 60C7 58.9 7.9 58 9 58C10.1 58 11 58.9 11 60Z"></path><path d="M54 7.9V21C54 22.7 52.7 24 51 24H48V26H51C53.8 26 56 23.8 56 21V7.9C57.7 7.5 59 5.9 59 4C59 1.8 57.2 0 55 0C52.8 0 51 1.8 51 4C51 5.9 52.3 7.4 54 7.9ZM55 2C56.1 2 57 2.9 57 4C57 5.1 56.1 6 55 6C53.9 6 53 5.1 53 4C53 2.9 53.9 2 55 2Z"></path><path d="M7 7.9V21C7 23.8 9.2 26 12 26H16V24H12C10.3 24 9 22.7 9 21V7.9C10.7 7.5 12 5.9 12 4C12 1.8 10.2 0 8 0C5.8 0 4 1.8 4 4C4 5.9 5.3 7.4 7 7.9ZM8 2C9.1 2 10 2.9 10 4C10 5.1 9.1 6 8 6C6.9 6 6 5.1 6 4C6 2.9 6.9 2 8 2Z"></path><path d="M27 48C24.8 48 23 49.8 23 52C23 53.9 24.3 55.4 26 55.9V64H28V55.9C29.7 55.5 31 53.9 31 52C31 49.8 29.2 48 27 48ZM27 54C25.9 54 25 53.1 25 52C25 50.9 25.9 50 27 50C28.1 50 29 50.9 29 52C29 53.1 28.1 54 27 54Z"></path><path d="M18 52H16V64H18V52Z"></path><path d="M38 56H36V64H38V56Z"></path><path d="M48 48H46V60H48V48Z"></path><path d="M17 20C19.2 20 21 18.2 21 16C21 14.1 19.7 12.6 18 12.1V4H16V12.1C14.3 12.5 13 14.1 13 16C13 18.2 14.8 20 17 20ZM17 14C18.1 14 19 14.9 19 16C19 17.1 18.1 18 17 18C15.9 18 15 17.1 15 16C15 14.9 15.9 14 17 14Z"></path><path d="M28 0H26V12H28V0Z"></path><path d="M38 8H36V16H38V8Z"></path><path d="M47 20C49.2 20 51 18.2 51 16C51 14.1 49.7 12.6 48 12.1V4H46V12.1C44.3 12.5 43 14.1 43 16C43 18.2 44.8 20 47 20ZM47 14C48.1 14 49 14.9 49 16C49 17.1 48.1 18 47 18C45.9 18 45 17.1 45 16C45 14.9 45.9 14 47 14Z"></path><path d="M50 31H48V33H50V31Z"></path><path d="M16 31H14V33H16V31Z"></path><path d="M32 18C24.3 18 18 24.3 18 32C18 39.7 24.3 46 32 46C39.7 46 46 39.7 46 32C46 24.3 39.7 18 32 18ZM32 44C25.4 44 20 38.6 20 32C20 25.4 25.4 20 32 20C38.6 20 44 25.4 44 32C44 38.6 38.6 44 32 44Z"></path><path d="M48 62H46V64H48V62Z"></path><path d="M48 0H46V2H48V0Z"></path><path d="M38 0H36V2H38V0Z"></path><path d="M38 4H36V6H38V4Z"></path><path d="M18 0H16V2H18V0Z"></path><path d="M18 44H16V46H18V44Z"></path><path d="M18 48H16V50H18V48Z"></path><path d="M38 52H36V54H38V52Z"></path><path d="M38 48H36V50H38V48Z"></path><path d="M48 44H46V46H48V44Z"></path><path d="M28 14H26V16H28V14Z"></path><path transform="translate(-0.4 -0.3)" fill-rule="evenodd" clip-rule="evenodd" d="M30.5994 31.8412C31.0128 32.2471 31.2695 32.8095 31.2695 33.4299H31.2682V34.7139C31.2682 34.4482 31.1583 34.2068 30.9812 34.0328L28.6701 31.7629C28.2554 31.357 28 30.7946 28 30.1742C28 27.8693 29.9032 26 32.25 26C34.5968 26 36.4986 27.8693 36.4986 30.1728V30.6597C36.4986 30.394 36.3888 30.1526 36.2116 29.9786L34.329 28.1309C33.7962 27.6076 33.0616 27.284 32.2486 27.284C30.6241 27.284 29.3073 28.5787 29.3073 30.1742C29.3073 30.4399 29.4171 30.6813 29.5943 30.8553L30.5994 31.8412ZM31.2696 31.9895V30.1729C31.2696 29.6415 31.709 29.2099 32.2501 29.2099C32.5206 29.2099 32.765 29.3178 32.9435 29.4931L36.2117 32.703C36.3888 32.877 36.4987 33.1184 36.4987 33.3841V32.1001C36.4987 31.4797 36.2433 30.9187 35.8286 30.5114L33.8677 28.5854C33.4543 28.1795 32.8817 27.9273 32.2501 27.9273C30.9867 27.9273 29.9623 28.9334 29.9623 30.1742C29.9623 30.2619 29.9994 30.3428 30.0585 30.4008L30.9826 31.3084C31.1598 31.4824 31.2696 31.7238 31.2696 31.9895ZM33.2305 34.8245C33.2305 35.3559 32.791 35.7874 32.25 35.7874C31.9795 35.7874 31.7337 35.6795 31.5565 35.5056L28.2884 32.2943C28.1098 32.1203 28 31.8803 28 31.6132V32.8972C28 33.5176 28.2554 34.08 28.6701 34.4859L30.631 36.4119C31.0457 36.8192 31.617 37.07 32.2486 37.07C33.5119 37.07 34.5363 36.0639 34.5363 34.8231C34.5363 34.7341 34.4993 34.6545 34.4402 34.5965L33.5161 33.6889C33.3389 33.5149 33.2291 33.2735 33.2291 33.0078V34.8245H33.2305ZM33.9006 33.1575C33.4872 32.7515 33.2305 32.1891 33.2305 31.5687V30.2834C33.2305 30.5491 33.3403 30.7905 33.5174 30.9645L35.8299 33.2371C36.2446 33.643 36.5 34.2054 36.5 34.8258C36.5 37.1307 34.5968 39 32.25 39C29.9032 39 28 37.1307 28 34.8258V34.3389C28 34.6046 28.1098 34.8447 28.287 35.02L30.1696 36.8677C30.7024 37.391 31.4371 37.7147 32.25 37.7147C33.8745 37.7147 35.1914 36.42 35.1914 34.8245C35.1914 34.5588 35.0815 34.3174 34.9044 34.1434L33.9006 33.1575Z" fill="#357EDD"></path></g></svg>
