<?xml version="1.0" encoding="UTF-8"?>
<svg width="83px" height="130px" viewBox="0 0 83 130" version="1.1" xmlns="http://www.w3.org/2000/svg" xmlns:xlink="http://www.w3.org/1999/xlink">
    <!-- Generator: Sketch 49.3 (51167) - http://www.bohemiancoding.com/sketch -->
    <title>oc_logo-black</title>
    <desc>Created with Sketch.</desc>
    <defs></defs>
    <g id="website" stroke="none" stroke-width="1" fill="none" fill-rule="evenodd">
        <g id="home" transform="translate(-161.000000, -175.000000)" fill="#1A1A1A" fill-rule="nonzero">
            <g id="header_text" transform="translate(156.000000, 175.000000)">
                <g id="oc_logo-black" transform="translate(5.000000, 0.000000)">
                    <path d="M31.9261712,59.8952173 C31.9261712,57.2383027 30.8534733,54.8241519 29.123748,53.0843448 L20.0996769,44.0076771 C19.5231018,43.4277415 19.1610662,42.6185289 19.1610662,41.7418819 C19.1610662,29.3339558 29.1639742,19.2727461 41.5,19.2727461 C47.6680129,19.2727461 53.2594507,21.794792 57.2954766,25.8543417 L76.4431341,45.113601 C80.4925687,49.1866376 82.9865913,54.7971781 82.9865913,61.0011412 L82.9865913,73.8406474 C82.9865913,71.1837328 81.9138934,68.7695819 80.184168,67.0297749 L48.2714055,34.9310094 C46.5282714,33.1777155 44.1415186,32.0987654 41.5,32.0987654 C36.2169628,32.0987654 31.9261712,36.4145658 31.9261712,41.7283951 L31.9261712,59.8952173 Z M31.9261712,74.2992012 C31.9261712,68.0952381 29.4187399,62.4712107 25.3827141,58.411661 L15.5675283,48.5527544 C13.8378029,46.8129474 12.765105,44.3987966 12.765105,41.7418819 C12.765105,25.7869074 25.6240711,12.8395062 41.4865913,12.8395062 C49.4245557,12.8395062 56.5982229,16.0763565 61.8008078,21.3092644 L80.184168,39.7862849 C81.9138934,41.5260919 82.9865913,43.9402428 82.9865913,46.5971574 L82.9865913,41.7283951 C82.9865913,18.6928105 64.4155089,0 41.5,0 C18.5844911,0 0,18.6928105 0,41.7418819 C0,47.945845 2.49402262,53.5698724 6.54345719,57.6294221 L29.1103393,80.3278348 C30.8400646,82.0676419 31.9127625,84.4817927 31.9127625,87.1387073 L31.9127625,74.2992012 L31.9261712,74.2992012 Z M51.0738288,88.2446312 C51.0738288,93.5584604 46.7830372,97.8742608 41.5,97.8742608 C38.8584814,97.8742608 36.4583199,96.7953107 34.7285945,95.0555037 L2.81583199,62.9432514 C1.0726979,61.2034443 0,58.8027804 0,56.1323789 L0,68.9718851 C0,75.1758481 2.49402262,80.7998755 6.54345719,84.8594253 L25.6911147,104.118685 C29.7405493,108.191721 35.3185784,110.70028 41.4865913,110.70028 C53.8226171,110.70028 63.825525,100.63907 63.825525,88.2311443 C63.825525,87.3410105 63.4634895,86.5452848 62.8869144,85.9653491 L53.8628433,76.8886814 C52.1331179,75.1488744 51.06042,72.7347235 51.06042,70.0778089 L51.06042,88.2446312 L51.0738288,88.2446312 Z M51.0738288,55.687312 C51.0738288,61.891275 53.5812601,67.5153024 57.6172859,71.5748522 L67.419063,81.4337587 C69.1487884,83.1735657 70.2214863,85.5877166 70.2214863,88.2446312 C70.2214863,104.199606 57.3625202,117.147007 41.5,117.147007 C33.5620355,117.147007 26.3883683,113.910157 21.1857835,108.677249 L2.80242326,90.2002282 C1.0726979,88.4469343 0,86.0462704 0,83.3893557 L0,88.2581181 C0,111.30719 18.5844911,130 41.5,130 C64.4155089,130 83,111.30719 83,88.2581181 C83,82.054155 80.5059774,76.4301276 76.4565428,72.3705779 L53.876252,49.6451914 C52.1465267,47.9053844 51.0738288,45.4912335 51.0738288,42.8343189 L51.0738288,55.687312 Z" id="Shape"></path>
                </g>
            </g>
        </g>
    </g>
</svg>