<svg width="85px" height="85px" viewBox="0 0 85 85" version="1.1" xmlns="http://www.w3.org/2000/svg" xmlns:xlink="http://www.w3.org/1999/xlink">
    <g  stroke="none" stroke-width="1" fill="none" fill-rule="evenodd">
        <g  fill-rule="nonzero">
            <g>
                <path d="M42.333,12 C59.059,12 72.666,25.607 72.666,42.333 C72.666,59.059 59.059,72.666 42.333,72.666 C25.607,72.666 12,59.059 12,42.333 C12,25.607 25.607,12 42.333,12 Z M60.8867187,38.7763158 L56.9568256,37.833162 C56.6206825,36.6204256 56.140111,35.4588302 55.5238487,34.3681641 L57.6347656,30.9244963 C57.8254523,30.6132812 57.7776522,30.2118626 57.5196341,29.9538445 L54.0461554,26.4803659 C53.7891653,26.2231188 53.3887747,26.1737767 53.0752467,26.3654913 L49.6315789,28.4761513 C48.5414268,27.8601459 47.3798314,27.3795744 46.167352,27.0429174 L45.2241982,23.1130243 C45.1388775,22.7581209 44.8212377,22.5078125 44.4563117,22.5078125 L39.5436883,22.5078125 C39.1787623,22.5078125 38.8611225,22.7581209 38.7758018,23.1130243 L37.832648,27.0429174 C36.6201686,27.3795744 35.4585732,27.8601459 34.3684211,28.4761513 L30.9247533,26.3654914 C30.6122533,26.1740337 30.2113486,26.2220909 29.9538445,26.4803659 L26.4803659,29.9538446 C26.2223478,30.2118627 26.1745476,30.6132813 26.3652343,30.9244963 L28.4761513,34.3681641 C27.8598889,35.4588302 27.3793174,36.6204256 27.0431743,37.8331621 L23.1132813,38.7763158 C22.7581209,38.8613795 22.5078125,39.1790193 22.5078125,39.5439453 L22.5078125,44.4560547 C22.5078125,44.8209807 22.7581209,45.1386205 23.1132813,45.2236842 L27.0431744,46.166838 C27.3793175,47.3795744 27.859889,48.5411698 28.4761513,49.6318359 L26.3652344,53.0755037 C26.1745477,53.3867188 26.2223478,53.7881374 26.4803659,54.0461555 L29.9538446,57.5196341 C30.2113487,57.7773952 30.6117393,57.8269943 30.9247533,57.6345087 L34.3679071,55.5238487 C35.4585732,56.1398541 36.6201686,56.6204256 37.8326481,56.9570827 L38.7758018,60.8867188 C38.8611226,61.2416222 39.1787624,61.4919305 39.5436884,61.4919305 L44.4563117,61.4919305 C44.8212377,61.4919305 45.1388775,61.2416222 45.2241983,60.8867188 L46.1673521,56.9570827 C47.3798315,56.6204256 48.5414269,56.1398541 49.632093,55.5238487 L53.0752468,57.6345087 C53.3877468,57.8257093 53.7886514,57.7779092 54.0461555,57.5196341 L57.5196342,54.0461555 C57.7776523,53.7881374 57.8254524,53.3867188 57.6347657,53.0755037 L55.5238488,49.6318359 C56.1401111,48.5411698 56.6206827,47.3795744 56.9568257,46.166838 L60.8867187,45.2236842 C61.2418791,45.1386205 61.4921875,44.8209807 61.4921875,44.4560547 L61.4921875,39.5439453 C61.4921875,39.1790193 61.2418791,38.8613795 60.8867187,38.7763158 Z"  fill="#357EDD"></path>
                <path d="M42.5,0.5 C19.304,0.5 0.5,19.304 0.5,42.5 C0.5,65.696 19.304,84.5 42.5,84.5 C65.696,84.5 84.5,65.696 84.5,42.5 C84.5,19.304 65.696,0.5 42.5,0.5 Z M42.5,75.944 C24.059,75.944 9.056,60.941 9.056,42.5 C9.056,24.059 24.059,9.056 42.5,9.056 C60.941,9.056 75.944,24.059 75.944,42.5 C75.944,60.941 60.941,75.944 42.5,75.944 Z"  fill="#232C3D"></path>
                <g  transform="translate(28.000000, 36.000000)" fill="#232C3D">
                    <path d="M10.6077303,0.882812526 L7.776213,0.882812526 C5.5625,0.882812526 3.76151316,2.68405637 3.76151316,4.89802632 L3.76151316,5.21052632 L0.560444105,5.21052632 L0.560444105,6.78947368 L3.76151316,6.78947368 L3.76151316,7.10197368 C3.76151316,9.31594368 5.5625,11.1171875 7.776213,11.1171875 L10.6077303,11.1171875 C11.0435855,11.1171875 11.3972039,10.7638261 11.3972039,10.3277138 L11.3972039,1.67228621 C11.3972039,1.23617395 11.0435855,0.882812526 10.6077303,0.882812526 Z M9.81825658,9.53824011 L7.776213,9.53824011 C6.43318258,9.53824011 5.34046053,8.44526105 5.34046053,7.10197368 L5.34046053,4.89802632 C5.34046053,3.55473889 6.43318258,2.46175989 7.776213,2.46175989 L9.81825658,2.46175989 L9.81825658,9.53824011 Z" ></path>
                    <path d="M25.4226974,4.89802632 C25.4226974,2.68405632 23.6217105,0.882812526 21.4079975,0.882812526 L18.5764803,0.882812526 C18.140625,0.882812526 17.7870066,1.23617395 17.7870066,1.67228621 L17.7870066,3.10809005 L14.6008429,3.10809005 L14.6008429,4.68703742 L17.7870066,4.68703742 L17.7870066,7.16005347 L14.6008429,7.16005347 L14.6008429,8.73900084 L17.7870066,8.73900084 L17.7870066,10.3277138 C17.7870066,10.7638261 18.140625,11.1171875 18.5764803,11.1171875 L21.4079975,11.1171875 C23.6217105,11.1171875 25.4226974,9.31594368 25.4226974,7.10197374 L25.4226974,6.78947368 L28.6237664,6.78947368 L28.6237664,5.21052632 L25.4226974,5.21052632 L25.4226974,4.89802632 Z M23.84375,7.10197368 C23.84375,8.44526111 22.7510279,9.53824011 21.4079975,9.53824011 L19.3659539,9.53824011 L19.3659539,2.46175989 L21.4079975,2.46175989 C22.7510279,2.46175989 23.84375,3.55473895 23.84375,4.89802632 L23.84375,7.10197368 Z" ></path>
                </g>
            </g>
        </g>
    </g>
</svg>
