<svg width="85px" height="85px" viewBox="0 0 85 85" version="1.1" xmlns="http://www.w3.org/2000/svg" xmlns:xlink="http://www.w3.org/1999/xlink">
    <g  stroke="none" stroke-width="1" fill="none" fill-rule="evenodd">
        <g  transform="translate(-114.000000, -214.000000)" fill-rule="nonzero">
            <g  transform="translate(114.000000, 214.000000)">
                <path d="M42.5,12.167 C59.226,12.167 72.833,25.774 72.833,42.5 C72.833,59.226 59.226,72.833 42.5,72.833 C25.774,72.833 12.167,59.226 12.167,42.5 C12.167,25.774 25.774,12.167 42.5,12.167 Z M39.8434783,41.4714049 L39.8434783,35.8551656 C39.8434783,34.2124052 41.1646328,32.8781835 42.7913043,32.8781835 C43.6046401,32.8781835 44.3395323,33.2117389 44.8762514,33.7537665 L54.7023383,43.6770401 C55.2349288,44.2148982 55.5652174,44.9612285 55.5652174,45.7826087 L55.5652174,41.8132992 C55.5652174,39.8953556 54.7972963,38.1608674 53.5504567,36.9016957 L47.6548045,30.9477315 C46.4120935,29.6927293 44.690464,28.9130435 42.7913043,28.9130435 C38.992985,28.9130435 35.9130435,32.0234477 35.9130435,35.859335 C35.9130435,36.1303488 36.0245159,36.3805154 36.202046,36.5598014 L38.9805992,39.3658364 C39.5131896,39.9036945 39.8434783,40.6500247 39.8434783,41.4714049 Z M39.8353179,45.8363088 C39.8353179,43.9294833 39.0628675,42.2009044 37.8195115,40.9531773 L34.7958018,37.9229827 C34.2629349,37.3882425 33.9324749,36.6462386 33.9324749,35.8296199 C33.9324749,30.9257619 37.893865,26.9462999 42.7805433,26.9462999 C45.2259479,26.9462999 47.4358996,27.9411654 49.038631,29.5495313 L54.7018905,35.2285553 C55.2347573,35.7632955 55.5652174,36.5052994 55.5652174,37.3219181 L55.5652174,35.8254746 C55.5652174,28.7453483 49.8441274,23 42.7846741,23 C35.7252208,23 30,28.7453483 30,35.8296199 C30,37.7364454 30.7683197,39.4650243 32.0158064,40.7127514 L38.9678602,47.6892458 C39.5007271,48.2239861 39.8311872,48.9659899 39.8311872,49.7826087 L39.8311872,45.8363088 L39.8353179,45.8363088 Z M45.7258677,50.1448344 C45.7258677,51.7875948 44.4047132,53.1218165 42.7780417,53.1218165 C41.9647059,53.1218165 41.2256851,52.7882611 40.6930946,52.250403 L30.8670077,42.3229599 C30.3302886,41.7851018 30,41.042941 30,40.2173913 L30,44.1867008 C30,46.1046444 30.7679211,47.843302 32.0147607,49.0983043 L37.9104129,55.0522685 C39.1572525,56.3114402 40.8747534,57.0869565 42.773913,57.0869565 C46.5722324,57.0869565 49.6521739,53.9765523 49.6521739,50.140665 C49.6521739,49.8654817 49.5407015,49.6194846 49.3631714,49.4401986 L46.5846182,46.6341636 C46.0520278,46.0963055 45.7217391,45.3499753 45.7217391,44.5285951 L45.7217391,50.1448344 L45.7258677,50.1448344 Z M45.7314884,40.166614 C45.7314884,42.0728495 46.503814,43.8008934 47.7469692,45.0482344 L50.7660603,48.0774913 C51.298841,48.612066 51.6292477,49.3538403 51.6292477,50.1702063 C51.6292477,55.0725467 47.6684976,59.0507773 42.7826087,59.0507773 C40.3375992,59.0507773 38.1280045,58.0562197 36.5255321,56.4483515 L30.8631875,50.7710849 C30.3304067,50.2323662 30,49.4947359 30,48.6783699 L30,50.1743503 C30,57.2564296 35.7242958,63 42.7826087,63 C49.8409215,63 55.5652174,57.2564296 55.5652174,50.1743503 C55.5652174,48.2681148 54.7970218,46.5400709 53.5497366,45.2927299 L46.5946758,38.3101064 C46.0618951,37.7755316 45.7314884,37.0337574 45.7314884,36.2173913 L45.7314884,40.166614 Z"  fill="#357EDD"></path>
                <path d="M42.5,0.5 C19.304,0.5 0.5,19.304 0.5,42.5 C0.5,65.696 19.304,84.5 42.5,84.5 C65.696,84.5 84.5,65.696 84.5,42.5 C84.5,19.304 65.696,0.5 42.5,0.5 Z M42.5,75.944 C24.059,75.944 9.056,60.941 9.056,42.5 C9.056,24.059 24.059,9.056 42.5,9.056 C60.941,9.056 75.944,24.059 75.944,42.5 C75.944,60.941 60.941,75.944 42.5,75.944 Z"  fill="#232C3D"></path>
            </g>
        </g>
    </g>
</svg>
