<svg width="84px" height="84px" viewBox="0 0 84 84" version="1.1" xmlns="http://www.w3.org/2000/svg" xmlns:xlink="http://www.w3.org/1999/xlink">
    <g id="workarea" stroke="none" stroke-width="1" fill="none" fill-rule="evenodd">
        <g id="workbench" transform="translate(-118.000000, -242.000000)">
            <g id="temp/glyph/tech/security" transform="translate(118.000000, 242.000000)">
                <g id="tech-origol">
                    <path d="M42,12 C58.5423796,12 72,25.4576204 72,42 C72,58.5423796 58.5423796,72 42,72 C25.4576204,72 12,58.5423796 12,42 C12,25.4576204 25.4576204,12 42,12 Z M36,32 C33.790861,32 32,33.790861 32,36 L32,48 C32,50.209139 33.790861,52 36,52 L48,52 C50.209139,52 52,50.209139 52,48 L52,36 C52,33.790861 50.209139,32 48,32 L36,32 Z" id="Combined-Shape" fill="#357EDD" fill-rule="nonzero"></path>
                    <path d="M42,0 C18.804,0 0,18.804 0,42 C0,65.196 18.804,84 42,84 C65.196,84 84,65.196 84,42 C84,18.804 65.196,0 42,0 Z M42,75.444 C23.559,75.444 8.556,60.441 8.556,42 C8.556,23.559 23.559,8.556 42,8.556 C60.441,8.556 75.444,23.559 75.444,42 C75.444,60.441 60.441,75.444 42,75.444 Z" id="Shape" fill="#232C3D" fill-rule="nonzero"></path>
                </g>
            </g>
        </g>
    </g>
</svg>
