<svg width="84px" height="84px" viewBox="0 0 84 84" version="1.1" xmlns="http://www.w3.org/2000/svg" xmlns:xlink="http://www.w3.org/1999/xlink">
    <g id="workarea" stroke="none" stroke-width="1" fill="none" fill-rule="evenodd">
        <g id="workbench" transform="translate(-378.000000, -241.000000)">
            <g id="temp/glyph/tech/liquidity" transform="translate(378.000000, 241.000000)">
                <g id="tech-origol">
                    <path d="M42,12 C58.5423796,12 72,25.4576204 72,42 C72,58.5423796 58.5423796,72 42,72 C25.4576204,72 12,58.5423796 12,42 C12,25.4576204 25.4576204,12 42,12 Z M44.8284271,30.6862915 C43.26633,29.1241943 40.73367,29.1241943 39.1715729,30.6862915 L30.6862915,39.1715729 C29.1241943,40.73367 29.1241943,43.26633 30.6862915,44.8284271 L39.1715729,53.3137085 C40.73367,54.8758057 43.26633,54.8758057 44.8284271,53.3137085 L53.3137085,44.8284271 C54.8758057,43.26633 54.8758057,40.73367 53.3137085,39.1715729 L44.8284271,30.6862915 Z" id="Combined-Shape" fill="#357EDD" fill-rule="nonzero"></path>
                    <path d="M42,0 C18.804,0 0,18.804 0,42 C0,65.196 18.804,84 42,84 C65.196,84 84,65.196 84,42 C84,18.804 65.196,0 42,0 Z M42,75.444 C23.559,75.444 8.556,60.441 8.556,42 C8.556,23.559 23.559,8.556 42,8.556 C60.441,8.556 75.444,23.559 75.444,42 C75.444,60.441 60.441,75.444 42,75.444 Z" id="Shape" fill="#232C3D" fill-rule="nonzero"></path>
                </g>
            </g>
        </g>
    </g>
</svg>
