<svg width="84px" height="84px" viewBox="0 0 84 84" version="1.1" xmlns="http://www.w3.org/2000/svg" xmlns:xlink="http://www.w3.org/1999/xlink">
    <g id="workarea" stroke="none" stroke-width="1" fill="none" fill-rule="evenodd">
        <g id="workbench" transform="translate(-238.000000, -242.000000)">
            <g id="temp/glyph/tech/fractional_ownership" transform="translate(238.000000, 242.000000)">
                <g id="tech-origol">
                    <path d="M42,12 C58.5423796,12 72,25.4576204 72,42 C72,58.5423796 58.5423796,72 42,72 C25.4576204,72 12,58.5423796 12,42 C12,25.4576204 25.4576204,12 42,12 Z M49.0710678,34.9289322 C45.1658249,31.0236893 38.8341751,31.0236893 34.9289322,34.9289322 C31.0236893,38.8341751 31.0236893,45.1658249 34.9289322,49.0710678 C38.8341751,52.9763107 45.1658249,52.9763107 49.0710678,49.0710678 C52.9763107,45.1658249 52.9763107,38.8341751 49.0710678,34.9289322 Z" id="Combined-Shape" fill="#357EDD" fill-rule="nonzero"></path>
                    <path d="M42,0 C18.804,0 0,18.804 0,42 C0,65.196 18.804,84 42,84 C65.196,84 84,65.196 84,42 C84,18.804 65.196,0 42,0 Z M42,75.444 C23.559,75.444 8.556,60.441 8.556,42 C8.556,23.559 23.559,8.556 42,8.556 C60.441,8.556 75.444,23.559 75.444,42 C75.444,60.441 60.441,75.444 42,75.444 Z" id="Shape" fill="#232C3D" fill-rule="nonzero"></path>
                </g>
            </g>
        </g>
    </g>
</svg>
